<svg width="60" height="60" viewBox="0 0 60 60" fill="none" xmlns="http://www.w3.org/2000/svg">
<circle cx="30" cy="30" r="30" fill="#FFFFED"/>
<path d="M23.418 34.9453C22.5742 34.9453 21.8125 34.8359 21.1328 34.6172C20.4531 34.4062 19.8711 34.1094 19.3867 33.7266C18.9023 33.3516 18.5273 32.9062 18.2617 32.3906C18.0039 31.875 17.875 31.3164 17.875 30.7148C17.875 30.6445 17.875 30.5703 17.875 30.4922C17.875 30.4141 17.8828 30.3398 17.8984 30.2695L18.3555 30.3164C18.3398 30.3867 18.332 30.4531 18.332 30.5156C18.332 30.5703 18.332 30.6289 18.332 30.6914C18.332 31.2305 18.4531 31.7305 18.6953 32.1914C18.9375 32.6523 19.2734 33.0508 19.7031 33.3867C20.1406 33.7305 20.6602 34 21.2617 34.1953C21.8711 34.3906 22.543 34.4883 23.2773 34.4883C23.9492 34.4883 24.5352 34.3906 25.0352 34.1953C25.543 34 25.9766 33.7344 26.3359 33.3984C26.6953 33.0625 26.9922 32.6641 27.2266 32.2031C27.4688 31.7422 27.6602 31.25 27.8008 30.7266C27.9492 30.2031 28.0586 29.6562 28.1289 29.0859C28.1992 28.5156 28.2461 27.9492 28.2695 27.3867C28.293 26.8242 28.3047 26.2773 28.3047 25.7461C28.3047 25.2148 28.3086 24.7227 28.3164 24.2695C28.332 23.1523 28.4727 22.1641 28.7383 21.3047C29.0117 20.4453 29.3438 19.6875 29.7344 19.0312C29.1875 18.8516 28.6367 18.6211 28.082 18.3398C27.5273 18.0508 26.9727 17.7695 26.418 17.4961C25.8633 17.2227 25.3008 16.9883 24.7305 16.793C24.168 16.5898 23.6016 16.4883 23.0312 16.4883C22.1016 16.4883 21.3125 16.6133 20.6641 16.8633C20.0156 17.1133 19.4883 17.4375 19.082 17.8359C18.6758 18.2266 18.3789 18.6641 18.1914 19.1484C18.0117 19.6328 17.9219 20.1133 17.9219 20.5898C17.9219 21.1445 18.0117 21.6562 18.1914 22.125C18.3789 22.5938 18.6367 23 18.9648 23.3438C19.3008 23.6875 19.6953 23.957 20.1484 24.1523C20.6016 24.3398 21.0977 24.4336 21.6367 24.4336C22.1523 24.4336 22.6172 24.3398 23.0312 24.1523C23.4531 23.957 23.8086 23.7422 24.0977 23.5078C24.3945 23.2734 24.6211 23.0586 24.7773 22.8633C24.9336 22.668 25.0156 22.5664 25.0234 22.5586L25.3867 22.8281C25.3867 22.8359 25.3438 22.8984 25.2578 23.0156C25.1719 23.125 25.043 23.2617 24.8711 23.4258C24.707 23.5898 24.5 23.7695 24.25 23.9648C24 24.1523 23.707 24.3281 23.3711 24.4922C23.043 24.6484 22.6758 24.7812 22.2695 24.8906C21.8711 25 21.4297 25.0547 20.9453 25.0547C20.4531 25.0547 19.9492 24.9727 19.4336 24.8086C18.9258 24.6367 18.4609 24.3828 18.0391 24.0469C17.625 23.7031 17.2852 23.2734 17.0195 22.7578C16.7539 22.2422 16.6211 21.6406 16.6211 20.9531C16.6211 20.2812 16.7539 19.6484 17.0195 19.0547C17.2852 18.4531 17.6719 17.9297 18.1797 17.4844C18.6875 17.0391 19.3164 16.6875 20.0664 16.4297C20.8164 16.1641 21.6758 16.0312 22.6445 16.0312C23.1367 16.0312 23.6094 16.082 24.0625 16.1836C24.5234 16.2773 24.9648 16.4023 25.3867 16.5586C25.8086 16.7148 26.2148 16.8906 26.6055 17.0859C27.0039 17.2812 27.3906 17.4766 27.7656 17.6719C28.1484 17.8672 28.5195 18.0508 28.8789 18.2227C29.2461 18.3945 29.6094 18.5352 29.9688 18.6445C30.2578 18.2148 30.5469 17.8398 30.8359 17.5195C31.125 17.1992 31.3867 16.9336 31.6211 16.7227C31.8633 16.5117 32.0586 16.3516 32.207 16.2422C32.3555 16.1328 32.4336 16.0703 32.4414 16.0547L32.7109 16.4414C32.6562 16.4727 32.5547 16.543 32.4062 16.6523C32.2656 16.7617 32.0977 16.918 31.9023 17.1211C31.7148 17.3164 31.5117 17.5547 31.293 17.8359C31.082 18.1172 30.875 18.4453 30.6719 18.8203C30.7891 18.8359 30.9023 18.8477 31.0117 18.8555C31.1211 18.8633 31.2383 18.8672 31.3633 18.8672C31.9336 18.8672 32.4414 18.7969 32.8867 18.6562C33.3398 18.5078 33.7344 18.3242 34.0703 18.1055C34.4141 17.8789 34.707 17.6367 34.9492 17.3789C35.1914 17.1133 35.3867 16.8672 35.5352 16.6406C35.6914 16.4062 35.8047 16.2109 35.875 16.0547C35.9531 15.8906 36 15.7969 36.0156 15.7734L36.4492 15.9141C36.4414 15.9219 36.3984 16.0117 36.3203 16.1836C36.2422 16.3555 36.1172 16.5703 35.9453 16.8281C35.7812 17.0781 35.5664 17.3477 35.3008 17.6367C35.0352 17.9258 34.7148 18.1953 34.3398 18.4453C33.9648 18.6953 33.5273 18.9062 33.0273 19.0781C32.5352 19.2422 31.9727 19.3242 31.3398 19.3242C31.1914 19.3242 31.043 19.3164 30.8945 19.3008C30.7461 19.2852 30.5977 19.2578 30.4492 19.2188C30.207 19.7266 30.0039 20.3086 29.8398 20.9648C29.6836 21.6133 29.6055 22.3359 29.6055 23.1328C29.6055 23.7891 29.6328 24.4727 29.6875 25.1836C29.75 25.8867 29.7812 26.5898 29.7812 27.293C29.7812 28.3789 29.6602 29.3906 29.418 30.3281C29.1836 31.2578 28.8086 32.0664 28.293 32.7539C27.7773 33.4336 27.1172 33.9688 26.3125 34.3594C25.5078 34.75 24.543 34.9453 23.418 34.9453Z" fill="black"/>
<path d="M33.8086 43.1484C33.207 43.1484 32.6562 43.0742 32.1562 42.9258C31.6562 42.7773 31.2266 42.5625 30.8672 42.2812C30.5156 42 30.2383 41.6562 30.0352 41.25C29.8398 40.8438 29.7422 40.3828 29.7422 39.8672C29.7422 39.3359 29.8633 38.7969 30.1055 38.25C30.3555 37.6953 30.7148 37.1836 31.1836 36.7148L31.4062 36.9375C31.1641 37.25 30.9609 37.625 30.7969 38.0625C30.6406 38.5 30.5625 38.9648 30.5625 39.457C30.5625 39.8555 30.6211 40.25 30.7383 40.6406C30.8633 41.0234 31.0547 41.3672 31.3125 41.6719C31.5703 41.9766 31.9023 42.2227 32.3086 42.4102C32.7227 42.5977 33.2227 42.6914 33.8086 42.6914C33.8555 42.6914 33.9023 42.6875 33.9492 42.6797C33.9961 42.6719 34.043 42.668 34.0898 42.668C33.8477 41.9336 33.6289 41.0352 33.4336 39.9727C33.2461 38.9102 33.1523 37.6758 33.1523 36.2695C33.1523 34.957 33.2305 33.8008 33.3867 32.8008C33.543 31.8008 33.7266 30.9375 33.9375 30.2109C34.1484 29.4844 34.3633 28.8867 34.582 28.418C34.8086 27.9414 34.9883 27.5742 35.1211 27.3164L35.4609 27.3867C35.3906 27.7227 35.3008 28.1836 35.1914 28.7695C35.082 29.3477 34.9727 30.0625 34.8633 30.9141C34.7617 31.7578 34.6719 32.7461 34.5938 33.8789C34.5156 35.0117 34.4766 36.293 34.4766 37.7227C34.4766 38.5273 34.5 39.3398 34.5469 40.1602C34.5938 40.9727 34.6641 41.793 34.7578 42.6211C35.7031 42.5195 36.5859 42.2812 37.4062 41.9062C38.2266 41.5312 38.9727 41.0586 39.6445 40.4883C40.3242 39.918 40.9258 39.2695 41.4492 38.543C41.9727 37.8164 42.4141 37.0508 42.7734 36.2461C43.1406 35.4414 43.418 34.6172 43.6055 33.7734C43.793 32.9297 43.8867 32.1055 43.8867 31.3008C43.8867 30.2383 43.7227 29.3281 43.3945 28.5703C43.0664 27.8125 42.6406 27.1953 42.1172 26.7188C41.5938 26.2344 41 25.8828 40.3359 25.6641C39.6797 25.4375 39.0234 25.3242 38.3672 25.3242C37.7188 25.3242 37.1172 25.3672 36.5625 25.4531C36.0078 25.5391 35.4961 25.6523 35.0273 25.793C34.5664 25.9336 34.1445 26.0938 33.7617 26.2734C33.3867 26.4453 33.0508 26.625 32.7539 26.8125C32.0508 27.25 31.4727 27.7461 31.0195 28.3008L30.6328 28.0312C30.6406 28.0156 30.7109 27.9258 30.8438 27.7617C30.9844 27.5977 31.1914 27.3984 31.4648 27.1641C31.7383 26.9297 32.082 26.6797 32.4961 26.4141C32.918 26.1484 33.4102 25.9023 33.9727 25.6758C34.543 25.4414 35.1914 25.25 35.918 25.1016C36.6523 24.9453 37.4688 24.8672 38.3672 24.8672C39.4453 24.8672 40.4102 25.0078 41.2617 25.2891C42.1133 25.5703 42.832 25.9883 43.418 26.543C44.0117 27.0898 44.4648 27.7695 44.7773 28.582C45.0898 29.3867 45.2461 30.3164 45.2461 31.3711C45.2461 32.6055 45.0859 33.7422 44.7656 34.7812C44.4453 35.8125 44.0156 36.75 43.4766 37.5938C42.9375 38.4297 42.3164 39.168 41.6133 39.8086C40.9102 40.4492 40.1719 41 39.3984 41.4609C38.625 41.9141 37.8438 42.2734 37.0547 42.5391C36.2656 42.8125 35.5195 42.9922 34.8164 43.0781C34.8398 43.2266 34.8633 43.3672 34.8867 43.5C34.9102 43.6328 34.9336 43.7734 34.957 43.9219L34.5703 43.9688C34.5234 43.8438 34.4688 43.7109 34.4062 43.5703C34.3516 43.4297 34.293 43.2812 34.2305 43.125C34.1602 43.1406 34.0898 43.1484 34.0195 43.1484C33.9492 43.1484 33.8789 43.1484 33.8086 43.1484Z" fill="black"/>
</svg>
